<svg id="Calque_1" data-name="Calque 1" xmlns="http://www.w3.org/2000/svg" viewBox="0 0 143.85 77.23"><defs><style>.cls-1{fill:none}.cls-2{fill:#fff}.cls-3{fill:#143584}.cls-4{fill:#00e898}</style></defs><title>TALYCO</title><path class="cls-1" d="M387.64 266.94v12.35a28 28 0 0 0 28-28h-12.35a15.67 15.67 0 0 1-15.65 15.65zm0-43.65v12.35a15.67 15.67 0 0 1 15.65 15.65h12.35a28 28 0 0 0-28-28z" transform="translate(-349.02 -212.67)"/><path class="cls-2" d="M392.67 251.29a5 5 0 0 0-5-5v10.07a5 5 0 0 0 5-5.07zm-10.07 0a5 5 0 0 0 5 5v-10.04a5 5 0 0 0-5 5.04z" transform="translate(-349.02 -212.67)"/><path class="cls-3" d="M349 251.29a38.66 38.66 0 0 0 38.62 38.62v-10.62a28 28 0 1 1 0-56v-10.62A38.66 38.66 0 0 0 349 251.29z" transform="translate(-349.02 -212.67)"/><path class="cls-4" d="M418.07 264.78a38.42 38.42 0 0 1-2.44-13.49 28 28 0 0 1-28 28v10.61a38.63 38.63 0 0 0 33.31-19.11 38.46 38.46 0 0 1-2.87-6.01z" transform="translate(-349.02 -212.67)"/><path class="cls-3" d="M387.64 235.64a15.65 15.65 0 1 0 15.65 15.65 15.67 15.67 0 0 0-15.65-15.65zm0 20.69a5 5 0 1 1 5-5 5 5 0 0 1-5 5zm38.61-5.04a38.33 38.33 0 0 1-5.31 19.5 38.63 38.63 0 0 0 33.31 19.11v-10.61a28 28 0 0 1-28-28z" transform="translate(-349.02 -212.67)"/><path class="cls-2" d="M420.94 251.29h-5.31a38.33 38.33 0 0 0 5.31 19.5 38.33 38.33 0 0 0 5.31-19.5z" transform="translate(-349.02 -212.67)"/><path class="cls-4" d="M420.95 231.79a38.63 38.63 0 0 0-33.31-19.11v10.61a28 28 0 0 1 28 28h10.61a28 28 0 0 1 28-28v-10.62a38.63 38.63 0 0 0-33.3 19.12zm48.9 18.37a15.65 15.65 0 0 0-14.45-14.46c-.38 0-.76-.06-1.14-.06a15.65 15.65 0 1 0 15.65 15.65c0-.38-.03-.75-.06-1.13zm-15.59 6.17a5 5 0 1 1 5-5 5 5 0 0 1-5.01 5z" transform="translate(-349.02 -212.67)"/><path class="cls-3" d="M455.71 212.67h-1.46v10.61c.39 0 .76 0 1.14.06a28 28 0 0 1 26.8 26.82c0 .38.06.75.06 1.13a28 28 0 0 1-28 28v10.61a38.66 38.66 0 0 0 38.62-38.62v-38.61z" transform="translate(-349.02 -212.67)"/></svg>